<?xml version="1.0" encoding="UTF-8" standalone="no"?>
<!DOCTYPE svg PUBLIC "-//W3C//DTD SVG 1.1//EN" "http://www.w3.org/Graphics/SVG/1.1/DTD/svg11.dtd">
<svg width="100%" height="100%" viewBox="0 0 500 500" version="1.1" xmlns="http://www.w3.org/2000/svg" xmlns:xlink="http://www.w3.org/1999/xlink" xml:space="preserve" xmlns:serif="http://www.serif.com/" style="fill-rule:evenodd;clip-rule:evenodd;stroke-linejoin:round;stroke-miterlimit:2;">
    <g transform="matrix(1.27226,0,0,1.27226,-71.2468,-77.6081)">
        <circle cx="252.5" cy="257.5" r="196.5" style="fill:rgb(35,35,35);"/>
        <clipPath id="_clip1">
            <circle cx="252.5" cy="257.5" r="196.5"/>
        </clipPath>
        <g clip-path="url(#_clip1)">
            <g transform="matrix(54.7777,0,0,54.7777,-6434.13,-9303.92)">
                <g transform="matrix(12,0,0,12,119.509,178.295)">
                    <path d="M0.022,-0L0.022,-0.019C0.053,-0.021 0.073,-0.028 0.084,-0.039C0.096,-0.051 0.101,-0.072 0.101,-0.102L0.101,-0.345C0.101,-0.374 0.097,-0.393 0.089,-0.401C0.081,-0.41 0.065,-0.414 0.041,-0.414L0.025,-0.414L0.025,-0.433C0.062,-0.444 0.094,-0.453 0.12,-0.462C0.147,-0.47 0.169,-0.478 0.189,-0.485L0.189,-0.391C0.212,-0.421 0.234,-0.444 0.254,-0.459C0.275,-0.474 0.294,-0.481 0.312,-0.481C0.329,-0.481 0.342,-0.476 0.353,-0.467C0.364,-0.457 0.369,-0.445 0.369,-0.43C0.369,-0.416 0.365,-0.405 0.358,-0.396C0.351,-0.388 0.341,-0.384 0.329,-0.384C0.317,-0.384 0.305,-0.389 0.291,-0.398C0.277,-0.407 0.267,-0.412 0.262,-0.412C0.252,-0.412 0.241,-0.407 0.23,-0.397C0.219,-0.387 0.205,-0.371 0.189,-0.348L0.189,-0.093C0.189,-0.065 0.195,-0.046 0.206,-0.036C0.217,-0.026 0.24,-0.021 0.275,-0.019L0.275,-0L0.022,-0Z" style="fill:white;fill-rule:nonzero;"/>
                </g>
            </g>
        </g>
    </g>
</svg>